<?xml version="1.0" standalone="no"?>
<!DOCTYPE svg PUBLIC "-//W3C//DTD SVG 20010904//EN"
 "http://www.w3.org/TR/2001/REC-SVG-20010904/DTD/svg10.dtd">
<svg version="1.0" xmlns="http://www.w3.org/2000/svg"
 width="100.000000pt" height="110.000000pt" viewBox="0 0 100.000000 110.000000"
 preserveAspectRatio="xMidYMid meet">

<g transform="translate(0.000000,110.000000) scale(0.100000,-0.100000)"
fill="#000000" stroke="none">
<path d="M163 926 l-133 -133 0 -317 c0 -347 0 -349 60 -400 l32 -26 229 0
229 0 0 40 0 40 193 2 192 3 3 68 3 67 -69 0 c-53 0 -71 -4 -76 -15 -4 -11
-20 -15 -54 -15 -32 0 -54 5 -62 15 -9 11 -32 15 -82 15 l-70 0 4 -70 3 -70
-196 0 c-184 0 -198 1 -223 21 l-26 21 2 281 3 282 102 5 c56 3 105 9 110 13
4 5 10 54 13 110 l5 102 164 3 c142 2 166 0 182 -14 17 -16 19 -35 19 -211 l0
-193 50 0 50 0 0 188 c0 175 -2 191 -22 232 -13 25 -38 55 -57 67 -32 22 -43
23 -240 23 l-206 0 -132 -134z"/>
<path d="M220 670 l0 -50 200 0 200 0 0 50 0 50 -200 0 -200 0 0 -50z"/>
<path d="M691 475 c-52 -54 -61 -68 -51 -80 7 -8 25 -15 41 -15 27 0 28 -2 31
-57 l3 -58 53 -3 52 -3 0 60 0 61 35 0 c60 0 55 24 -16 96 -35 35 -68 64 -75
64 -6 0 -39 -29 -73 -65z"/>
<path d="M220 475 l0 -45 180 0 180 0 0 45 0 45 -180 0 -180 0 0 -45z"/>
<path d="M590 380 c0 -5 5 -10 10 -10 6 0 10 5 10 10 0 6 -4 10 -10 10 -5 0
-10 -4 -10 -10z"/>
<path d="M220 285 l0 -45 145 0 145 0 0 29 c0 61 1 61 -151 61 l-139 0 0 -45z"/>
<path d="M510 150 c0 -5 5 -10 10 -10 6 0 10 5 10 10 0 6 -4 10 -10 10 -5 0
-10 -4 -10 -10z"/>
</g>
</svg>
